<?xml version="1.0" standalone="no"?><!DOCTYPE svg PUBLIC "-//W3C//DTD SVG 1.1//EN" "http://www.w3.org/Graphics/SVG/1.1/DTD/svg11.dtd"><svg t="1569991025805" class="icon" viewBox="0 0 1024 1024" version="1.1" xmlns="http://www.w3.org/2000/svg" p-id="964" xmlns:xlink="http://www.w3.org/1999/xlink" width="64" height="64"><defs><style type="text/css"></style></defs><path d="M710.881765 0H189.037378a126.030343 126.030343 0 0 0-126.030343 126.030343v639.509466a126.030343 126.030343 0 0 0 126.030343 126.030343h521.844387a126.030343 126.030343 0 0 0 126.030343-126.030343V126.030343a126.030343 126.030343 0 0 0-126.030343-126.030343zM177.710401 157.537928a31.507586 31.507586 0 0 1 31.507585-31.507585H480.482545a31.507586 31.507586 0 0 1 31.507586 31.507585v24.119057a31.507586 31.507586 0 0 1-31.507586 31.507586H209.217986a31.507586 31.507586 0 0 1-31.507585-31.507586V157.537928z m181.672739 353.483604a31.507586 31.507586 0 0 1-31.507586 31.507586H209.217986a31.507586 31.507586 0 0 1-31.507585-31.507586v-23.630689a31.507586 31.507586 0 0 1 31.507585-31.507586h118.641814a31.507586 31.507586 0 0 1 31.507586 31.507586v23.630689zM375.6253 378.091028H209.217986a31.507586 31.507586 0 0 1-31.507585-31.507586v-24.119056a31.507586 31.507586 0 0 1 31.507585-31.507586h166.407314a31.507586 31.507586 0 0 1 31.507586 31.507586V346.583442a31.507586 31.507586 0 0 1-31.507586 31.507586z m308.459264 38.644054c-8.459787 17.533971-133.765455 242.293334-133.765455 242.293334s-17.266157 26.214311-47.781254 48.458666c-30.515097 22.244355-66.890604 48.458667-66.890604 48.458667s-28.971225 15.501732-28.671903-19.377165c0.299322-34.894651 9.562552-106.605916 9.562552-106.605916s17.880555-37.289228 47.781254-87.228751 105.109306-184.146084 105.109305-184.146085 13.390724-29.049994 47.781254-9.688582l19.109351 9.688582 47.781254 29.081502c-0.015754 0 8.444033 11.54753-0.015754 29.065748z m57.343806-87.212997s-6.900161 14.635274-19.109351 29.081501c-12.209189 14.446228-28.671903 0-28.671903 0l-76.437403-48.458666c-10.161196-6.254256 0-19.392919 0-19.392919s5.561089-13.579769 19.109351-29.081502c13.548262-15.485978 38.218701-9.688583 38.218701-9.688583s0.850705-4.269278 38.218702 19.377166c37.367997 23.662197 28.671903 58.163003 28.671903 58.163003z" p-id="965"></path><path d="M960.673905 219.277042c-0.425352-71.90031-57.328052-77.540168-57.328053-77.540168L882.204262 141.784135s0.346583 498.292467 0 630.151714c-0.504121 194.890171-157.537928 173.291721-157.537928 173.291721l-528.397965 0.929474c0 85.669125 76.437403 77.540168 76.437402 77.540168S697.160212 1023.460905 787.681505 1023.996534c137.798426 0.819197 173.291721-141.784135 173.291722-141.784135s0.12603-591.035046-0.299322-662.935357z" p-id="966"></path></svg>