<?xml version="1.0" standalone="no"?><!DOCTYPE svg PUBLIC "-//W3C//DTD SVG 1.1//EN" "http://www.w3.org/Graphics/SVG/1.1/DTD/svg11.dtd"><svg t="1569991114149" class="icon" viewBox="0 0 1024 1024" version="1.1" xmlns="http://www.w3.org/2000/svg" p-id="1725" xmlns:xlink="http://www.w3.org/1999/xlink" width="64" height="64"><defs><style type="text/css"></style></defs><path d="M810.666667 550.4c0 4.266667-4.266667 4.266667-8.533334 4.266667h-72.533333c-4.266667 0-8.533333-4.266667-8.533333-4.266667v-29.866667c0-4.266667 4.266667-4.266667 8.533333-4.266666h72.533333c4.266667 0 8.533333 4.266667 8.533334 4.266666v29.866667zM665.6 384l-25.6-25.6v-12.8L686.933333 298.666667h12.8l25.6 25.6v12.8L678.4 384h-12.8z m-25.6 81.066667l-72.533333 72.533333c4.266667 17.066667 0 34.133333-12.8 46.933333-17.066667 17.066667-51.2 17.066667-68.266667 0-17.066667-17.066667-17.066667-51.2 0-68.266666 12.8-12.8 29.866667-17.066667 46.933333-12.8l72.533334-72.533334c4.266667-4.266667 8.533333-4.266667 8.533333 0l25.6 25.6v8.533334zM341.333333 358.4l-25.6 25.6h-12.8L256 337.066667v-12.8l25.6-25.6h12.8L341.333333 345.6v12.8z m-85.333333 192s-4.266667 4.266667-8.533333 4.266667H179.2c-4.266667 0-8.533333-4.266667-8.533333-4.266667v-29.866667c0-4.266667 4.266667-8.533333 8.533333-8.533333h72.533333l4.266667 4.266667v34.133333z m213.333333-285.866667c0-4.266667 4.266667-8.533333 4.266667-8.533333h29.866667c4.266667 0 8.533333 4.266667 8.533333 8.533333v72.533334l-4.266667 4.266666h-29.866666c-4.266667 0-8.533333-4.266667-8.533334-8.533333V264.533333z m435.2 128C883.2 341.333333 853.333333 294.4 814.933333 256s-85.333333-72.533333-136.533333-93.866667S571.733333 128 512 128s-115.2 12.8-166.4 34.133333S247.466667 213.333333 209.066667 256c-38.4 38.4-68.266667 85.333333-89.6 136.533333S85.333333 499.2 85.333333 558.933333c0 128 55.466667 247.466667 153.6 328.533334 4.266667 4.266667 12.8 8.533333 21.333334 8.533333H768c8.533333 0 12.8-4.266667 21.333333-8.533333 98.133333-81.066667 153.6-200.533333 153.6-328.533334-4.266667-59.733333-17.066667-115.2-38.4-166.4z" p-id="1726"></path></svg>