<?xml version="1.0" standalone="no"?><!DOCTYPE svg PUBLIC "-//W3C//DTD SVG 1.1//EN" "http://www.w3.org/Graphics/SVG/1.1/DTD/svg11.dtd"><svg t="1570543884819" class="icon" viewBox="0 0 1024 1024" version="1.1" xmlns="http://www.w3.org/2000/svg" p-id="2650" xmlns:xlink="http://www.w3.org/1999/xlink" width="64" height="64"><defs><style type="text/css"></style></defs><path d="M634.825 254.368c-6.001-6.001-14.141-9.373-22.628-9.373-8.486 0-16.626 3.372-22.627 9.373L159.623 684.314c-3.198 3.199-5.683 7.039-7.288 11.268l-82.53 217.339c-4.472 11.776-1.619 25.081 7.288 33.987 6.112 6.112 14.294 9.374 22.633 9.374 3.813 0 7.659-0.682 11.354-2.085l217.337-82.529c4.229-1.606 8.069-4.09 11.268-7.289l429.948-429.947c12.496-12.497 12.496-32.758 0-45.254L634.825 254.368z" p-id="2651"></path><path d="M928.264 140.514l-44.774-44.772c-18.067-18.071-42.091-28.023-67.645-28.023-25.553 0-49.576 9.951-67.646 28.02l-45.494 45.495c-12.496 12.497-12.496 32.758 0.001 45.255l134.809 134.807c6.249 6.249 14.437 9.373 22.627 9.373 8.188 0 16.379-3.125 22.627-9.372l45.498-45.496C965.561 238.5 965.56 177.812 928.264 140.514z" p-id="2652"></path></svg>