<?xml version="1.0" standalone="no"?><!DOCTYPE svg PUBLIC "-//W3C//DTD SVG 1.1//EN" "http://www.w3.org/Graphics/SVG/1.1/DTD/svg11.dtd"><svg t="1569991128191" class="icon" viewBox="0 0 1024 1024" version="1.1" xmlns="http://www.w3.org/2000/svg" p-id="2110" xmlns:xlink="http://www.w3.org/1999/xlink" width="64" height="64"><defs><style type="text/css"></style></defs><path d="M928 704H768V544c0-17.6-14.4-32-32-32s-32 14.4-32 32V704H544c-17.6 0-32 14.4-32 32s14.4 32 32 32H704v160c0 17.6 14.4 32 32 32s32-14.4 32-32V768h160c17.6 0 32-14.4 32-32s-14.4-32-32-32z" p-id="2111"></path><path d="M448 896H160c-17.92 0-32-14.72-32-32v-704c0-17.92 14.08-32 32-32h704c17.28 0 32 14.08 32 32V448a32 32 0 0 0 64 0V128c0-35.2-28.8-64-64-64H128c-35.2 0-64 28.8-64 64v768c0 35.2 28.8 64 64 64h320a32 32 0 0 0 0-64z" p-id="2112"></path></svg>