<?xml version="1.0" standalone="no"?><!DOCTYPE svg PUBLIC "-//W3C//DTD SVG 1.1//EN" "http://www.w3.org/Graphics/SVG/1.1/DTD/svg11.dtd"><svg t="1569991099389" class="icon" viewBox="0 0 1024 1024" version="1.1" xmlns="http://www.w3.org/2000/svg" p-id="1346" xmlns:xlink="http://www.w3.org/1999/xlink" width="64" height="64"><defs><style type="text/css"></style></defs><path d="M924.5 468.7H751.7c-19.6 0-35.5 16.7-35.5 37.2v11.6c0 20.6 15.9 37.2 35.5 37.2h172.8c19.6 0 35.5-16.7 35.5-37.2v-11.6c0-20.6-15.9-37.2-35.5-37.2zM523.5 149c-53.7 44.7-166.2 107.3-247.2 167.5l-0.1 0.1c-0.9 0.6-1.9 3.9-2.8 4.5-9.6 5.6-13.9 21.2-65.9 21.2H106.2c-26 0-42.2 12.7-42.2 41.5V639c0 28.7 14.8 42.9 42.2 42.9H208c51.7 0.1 55.9 15.5 65.5 21.1 0.9 0.6 1.8 3.9 2.8 4.5h0.1C354.8 767.7 468 835.2 523.6 878c16.7 12.9 72.3 35.6 72.3-44.2v-644c0-79.8-56.1-54.3-72.4-40.8z m159.6 176c9.2 16.9 27.4 21.2 40.6 9.5l142.1-125.2c13.3-11.7 16.6-34.9 7.4-51.8L868 148c-9.2-16.9-27.4-21.2-40.6-9.5l-142 125.1c-13.3 11.7-16.6 34.9-7.4 51.8l5.1 9.6z m40.6 364.5c-13.3-11.7-31.4-7.4-40.6 9.5l-5.2 9.6c-9.2 16.9-5.8 40.1 7.4 51.8l142.1 125.1c13.3 11.7 31.5 7.4 40.6-9.4l5.2-9.6c9.2-16.9 5.8-40.1-7.4-51.8L723.7 689.5z m0 0" fill="#666666" p-id="1347"></path></svg>