<?xml version="1.0" standalone="no"?><!DOCTYPE svg PUBLIC "-//W3C//DTD SVG 1.1//EN" "http://www.w3.org/Graphics/SVG/1.1/DTD/svg11.dtd"><svg t="1569991123566" class="icon" viewBox="0 0 1024 1024" version="1.1" xmlns="http://www.w3.org/2000/svg" p-id="1978" xmlns:xlink="http://www.w3.org/1999/xlink" width="64" height="64"><defs><style type="text/css"></style></defs><path d="M799.8464 257.0752a36.864 36.864 0 0 0-36.864-36.6592H292.096a36.864 36.864 0 0 0-36.9664 36.6592 36.864 36.864 0 0 0 36.9664 36.6592H762.88a36.864 36.864 0 0 0 36.9152-36.6592zM292.1472 439.5008a36.864 36.864 0 0 0-36.9664 36.6592 36.864 36.864 0 0 0 36.9664 36.6592H512a36.7616 36.7616 0 0 0 36.9152-36.6592A36.864 36.864 0 0 0 512 439.5008H292.1472z m529.4592 375.3472a32.7168 32.7168 0 0 0-7.936-5.9392 178.9952 178.9952 0 0 0 33.024-103.7312c0-100.7104-83.3024-182.2208-186.0608-182.2208-102.7072 0-186.0096 81.5104-186.0096 182.2208 0 100.6592 83.3024 182.1696 186.0096 182.1696a188.416 188.416 0 0 0 102.0928-29.7984 36.5568 36.5568 0 0 0 6.656 9.1648l95.8464 95.0784c14.336 14.2848 37.888 14.2848 52.224 0a36.5056 36.5056 0 0 0 0-51.8144l-95.8464-95.1296z m-160.9728 0.7168c-62.208 0-112.7424-49.4592-112.7424-110.3872 0-60.9792 50.5344-110.4384 112.7424-110.4384 62.2592 0 112.7936 49.4592 112.7936 110.4384 0 60.928-50.432 110.3872-112.7936 110.3872z m-56.4736 134.656a36.864 36.864 0 0 1 36.608 36.6592 36.864 36.864 0 0 1-37.0688 36.6592H198.4512C117.4528 1023.5392 51.2 957.7984 51.2 877.4144V147.0464C51.2 66.6624 117.4528 0.9216 198.4512 0.9216h660.48c80.9472 0 112.7424 65.7408 112.7424 146.1248v360.7552c0.1024 1.3312 0.2048 2.56 0.2048 3.9936a36.864 36.864 0 0 1-37.0688 36.608 36.864 36.864 0 0 1-37.0176-36.608v-0.1536h-0.3584V148.1728c0-40.192-33.1264-73.0624-73.6256-73.0624H194.048c-40.4992 0-73.6256 32.8704-73.6256 73.0624v729.0368c0 40.192 33.1264 73.0624 73.6256 73.0624H604.16z m293.5296-292.352a36.864 36.864 0 0 1 37.0176-36.608c20.48 0 37.0688 16.384 37.0688 36.608a36.864 36.864 0 0 1-37.0688 36.6592 36.864 36.864 0 0 1-37.0176-36.6592z" p-id="1979"></path></svg>