<?xml version="1.0" standalone="no"?><!DOCTYPE svg PUBLIC "-//W3C//DTD SVG 1.1//EN" "http://www.w3.org/Graphics/SVG/1.1/DTD/svg11.dtd"><svg t="1569991086886" class="icon" viewBox="0 0 1024 1024" version="1.1" xmlns="http://www.w3.org/2000/svg" p-id="1091" xmlns:xlink="http://www.w3.org/1999/xlink" width="64" height="64"><defs><style type="text/css"></style></defs><path d="M224 704h192a32 32 0 0 0 0-64h-192a32 32 0 0 0 0 64zM224 512h256a32 32 0 0 0 0-64h-256a32 32 0 0 0 0 64zM704 576a128 128 0 1 1-128 128 128 128 0 0 1 128-128m0-64a192 192 0 1 0 192 192 192 192 0 0 0-192-192z" fill="#666666" p-id="1092"></path><path d="M928 960a32 32 0 0 1-22.656-9.344l-96-96a32 32 0 0 1 45.312-45.312l96 96A32 32 0 0 1 928 960zM896 256h-179.2c-0.448-0.512-0.576-1.152-1.088-1.664L534.528 73.344a32 32 0 0 0-45.248 0L308.224 254.336c-0.448 0.512-0.64 1.152-1.088 1.664H128a64 64 0 0 0-64 64v512a64 64 0 0 0 64 64h320v-64H128V320h768v192h64V320a64 64 0 0 0-64-64zM397.12 256L512 141.248 626.688 256z" fill="#666666" p-id="1093"></path><path d="M384 832m32 0l64 0q32 0 32 32l0 0q0 32-32 32l-64 0q-32 0-32-32l0 0q0-32 32-32Z" fill="#666666" p-id="1094"></path><path d="M896 448m32 0l0 0q32 0 32 32l0 64q0 32-32 32l0 0q-32 0-32-32l0-64q0-32 32-32Z" fill="#666666" p-id="1095"></path></svg>