<?xml version="1.0" standalone="no"?><!DOCTYPE svg PUBLIC "-//W3C//DTD SVG 1.1//EN" "http://www.w3.org/Graphics/SVG/1.1/DTD/svg11.dtd"><svg t="1569991118968" class="icon" viewBox="0 0 1024 1024" version="1.1" xmlns="http://www.w3.org/2000/svg" p-id="1851" xmlns:xlink="http://www.w3.org/1999/xlink" width="64" height="64"><defs><style type="text/css"></style></defs><path d="M800.8 469.3c31.4-34.5 48.7-78.8 48.7-125 0-49.2-19.2-95.6-54-130.7-34.7-35.1-81.1-54.9-130.4-55.7l-12.8-0.2 6.9 11c0.6 0.9 1.2 1.9 1.7 2.8l0.4 0.6c14.7 19.2 26 40.4 33.8 63l1.1 3.2 3.2 1.1c22.1 7.8 40.9 21.9 54.3 40.7 13.5 18.8 20.6 41 20.6 64.2 0 43.7-25.9 83.5-66 101.6-15.4 5.8-25.3 19.4-25.3 34.5 0 15.5 10.7 29.6 26.7 35l7.7 1.8c99.9 25 169.6 114 169.6 216.3v20.3h-37.2l1.5 8.2c3.6 19.6 5.6 39.7 5.9 59.7v6.8h67.4c20.7 0 37.6-16.8 37.6-37.4v-57.6c-0.2-111.6-62-212.9-161.4-264.2z" p-id="1852"></path><path d="M576 482.8c54.8-42.9 86.3-106.9 86.3-175.7 0-123.3-101-223.7-225.2-223.7C313 83.4 212 183.7 212 307.1c0 68.8 31.5 132.8 86.3 175.7-68.8 27.4-127.6 74-170 134.7C84.9 679.8 62 752.8 62 828.7v74.5c0 20.6 16.9 37.4 37.6 37.4h675.1c20.7 0 37.6-16.8 37.6-37.4v-74.5c0-75.9-22.9-148.9-66.4-211.2-42.2-60.8-101-107.3-169.9-134.7z m-138.8 47.9c165.4 0 299.9 133.7 299.9 298v37.1H137.2v-37.1c0-164.3 134.6-298 300-298zM287.3 307.1c0-82.1 67.3-148.9 149.9-148.9 82.7 0 149.9 66.8 149.9 148.9 0 82.1-67.3 148.9-149.9 148.9-82.7 0-149.9-66.8-149.9-148.9z" p-id="1853"></path></svg>